<svg width="21" height="19" viewBox="0 0 21 19" fill="none" xmlns="http://www.w3.org/2000/svg">
<path d="M10.367 6.28782C8.45654 6.28782 6.9163 7.70157 6.9163 9.425C6.9163 11.1484 8.47135 12.5622 10.367 12.5622C12.2627 12.5622 13.8178 11.1484 13.8178 9.425C13.8178 7.70157 12.2627 6.28782 10.367 6.28782ZM20.7341 9.425C20.7341 8.11897 20.7341 6.83986 20.66 5.53382C20.586 4.02582 20.2009 2.67939 18.9865 1.58879C17.7721 0.484714 16.3059 0.134643 14.6471 0.0673214C13.2106 -6.52059e-08 11.8036 0 10.367 0C8.93046 0 7.52351 -6.52059e-08 6.08693 0.0673214C4.42821 0.134643 2.9472 0.484714 1.74759 1.58879C0.533162 2.69286 0.1481 4.02582 0.0740502 5.53382C-7.17233e-08 6.83986 0 8.11897 0 9.425C0 10.731 -7.17233e-08 12.0101 0.0740502 13.3162C0.1481 14.8242 0.533162 16.1706 1.74759 17.2612C2.96201 18.3653 4.42821 18.7154 6.08693 18.7827C7.52351 18.85 8.93046 18.85 10.367 18.85C11.8036 18.85 13.2106 18.85 14.6471 18.7827C16.3059 18.7154 17.7869 18.3653 18.9865 17.2612C20.2009 16.1571 20.586 14.8242 20.66 13.3162C20.7489 12.0236 20.7341 10.731 20.7341 9.425ZM10.367 14.2587C7.41984 14.2587 5.05023 12.1044 5.05023 9.425C5.05023 6.74561 7.41984 4.59132 10.367 4.59132C13.3142 4.59132 15.6838 6.74561 15.6838 9.425C15.6838 12.1044 13.3142 14.2587 10.367 14.2587ZM15.906 5.52036C15.2247 5.52036 14.662 5.02218 14.662 4.38936C14.662 3.75654 15.2099 3.25836 15.906 3.25836C16.6021 3.25836 17.15 3.75654 17.15 4.38936C17.1538 4.53684 17.1242 4.68345 17.063 4.8201C17.0019 4.95675 16.9105 5.08052 16.7946 5.18375C16.6811 5.28914 16.5449 5.3722 16.3946 5.42779C16.2443 5.48338 16.083 5.5103 15.9208 5.50689L15.906 5.52036Z" fill="white"/>
</svg>
