<svg width="18" height="20" viewBox="0 0 18 20" fill="none" xmlns="http://www.w3.org/2000/svg">
<path d="M14.2806 3.13333C13.4961 2.26614 13.0637 1.15267 13.0638 0H9.51658V13.7778C9.48979 14.5235 9.16475 15.2301 8.61005 15.7483C8.05534 16.2666 7.31433 16.556 6.54337 16.5556C4.91326 16.5556 3.55867 15.2667 3.55867 13.6667C3.55867 11.7556 5.46429 10.3222 7.4273 10.9111V7.4C3.46684 6.88889 0 9.86667 0 13.6667C0 17.3667 3.16837 20 6.53189 20C10.1365 20 13.0638 17.1667 13.0638 13.6667V6.67778C14.5022 7.67761 16.2291 8.21405 18 8.21111V4.77778C18 4.77778 15.8418 4.87778 14.2806 3.13333Z" fill="white"/>
</svg>
