<svg width="25" height="18" viewBox="0 0 25 18" fill="none" xmlns="http://www.w3.org/2000/svg">
<path fill-rule="evenodd" clip-rule="evenodd" d="M12.5 0C11.1151 0 9.5 0.0320999 7.92558 0.075664L7.86163 0.0779566C6.2593 0.122667 4.96628 0.158206 3.94767 0.324438C2.88605 0.497548 2.00465 0.828864 1.3 1.54309C0.593023 2.2596 0.284884 3.14579 0.139535 4.20623C8.66347e-09 5.22655 0 6.51971 0 8.127V9.87415C0 11.4791 8.66347e-09 12.7723 0.139535 13.7938C0.283721 14.8542 0.593023 15.7404 1.3 16.4569C2.00465 17.1723 2.88605 17.5025 3.94767 17.6756C4.96628 17.8418 6.2593 17.8773 7.86163 17.922L7.92558 17.9243C9.50116 17.9679 11.1151 18 12.5 18C13.8849 18 15.5 17.9679 17.0744 17.9243L17.1384 17.922C18.7407 17.8773 20.0337 17.8418 21.0523 17.6756C22.114 17.5025 22.9953 17.1711 23.7 16.4569C24.407 15.7404 24.7163 14.8542 24.8605 13.7938C25 12.7735 25 11.4803 25 9.873V8.12585C25 6.51971 25 5.22655 24.8605 4.20623C24.7163 3.14579 24.407 2.2596 23.7 1.54309C22.9953 0.827718 22.114 0.497548 21.0523 0.324438C20.0337 0.158206 18.7407 0.122667 17.1372 0.0779566L17.0744 0.075664C15.55 0.0300463 14.0251 0.00482272 12.5 0ZM11.1884 12.0386C11.0558 12.1133 10.9056 12.1523 10.7529 12.1518C10.6001 12.1513 10.4502 12.1113 10.3181 12.0357C10.1861 11.9601 10.0764 11.8517 10.0002 11.7212C9.92392 11.5908 9.88377 11.4428 9.88372 11.2923V6.70658C9.88377 6.55601 9.92392 6.40809 10.0002 6.27763C10.0764 6.14716 10.1861 6.03872 10.3181 5.96316C10.4502 5.88759 10.6001 5.84755 10.7529 5.84704C10.9056 5.84653 11.0558 5.88557 11.1884 5.96026L15.2581 8.2531C15.3915 8.32834 15.5024 8.43698 15.5795 8.56804C15.6566 8.6991 15.6972 8.84792 15.6972 8.99943C15.6972 9.15093 15.6566 9.29975 15.5795 9.43081C15.5024 9.56187 15.3915 9.67052 15.2581 9.74575L11.1884 12.0386Z" fill="white"/>
</svg>
